<?xml version="1.0" encoding="utf-8"?>
<!-- Generator: Adobe Illustrator 25.0.1, SVG Export Plug-In . SVG Version: 6.00 Build 0)  -->
<svg version="1.1" id="Layer_1" xmlns="http://www.w3.org/2000/svg" xmlns:xlink="http://www.w3.org/1999/xlink" x="0px" y="0px"
	 viewBox="0 0 40 40" style="enable-background:new 0 0 40 40;" xml:space="preserve">
<style type="text/css">
	.st0{fill:url(#SVGID_1_);}
	.st1{fill:url(#SVGID_2_);}
</style>
<g>
	
		<linearGradient id="SVGID_1_" gradientUnits="userSpaceOnUse" x1="-227.2832" y1="268.8459" x2="-226.5495" y2="267.9579" gradientTransform="matrix(31.8754 0 0 -28.4068 7253.8794 7637.1816)">
		<stop  offset="0" style="stop-color:#41D1FF"/>
		<stop  offset="1" style="stop-color:#BD34FE"/>
	</linearGradient>
	<path class="st0" d="M39.9,5.9L21.1,39.5c-0.4,0.7-1.4,0.7-1.8,0L0.1,5.9c-0.4-0.8,0.2-1.7,1.1-1.5L20,7.8c0.1,0,0.2,0,0.4,0
		l18.4-3.4C39.6,4.2,40.3,5.1,39.9,5.9z"/>
	
		<linearGradient id="SVGID_2_" gradientUnits="userSpaceOnUse" x1="-218.0868" y1="268.1569" x2="-217.9997" y2="267.0678" gradientTransform="matrix(14.6164 0 0 -26.6459 3210.0259 7145.9043)">
		<stop  offset="0" style="stop-color:#FFEA83"/>
		<stop  offset="8.333001e-02" style="stop-color:#FFDD35"/>
		<stop  offset="1" style="stop-color:#FFA800"/>
	</linearGradient>
	<path class="st1" d="M29,0L15.1,2.7c-0.2,0-0.4,0.2-0.4,0.5l-0.9,14.4c0,0.3,0.2,0.5,0.5,0.5c0,0,0.1,0,0.1,0l3.9-0.9
		c0.4-0.1,0.7,0.2,0.6,0.6l-1.2,5.6c-0.1,0.4,0.3,0.7,0.6,0.6l2.4-0.7c0.4-0.1,0.7,0.2,0.6,0.6l-1.8,8.8c-0.1,0.6,0.6,0.9,0.9,0.4
		l0.2-0.3l11.3-22.6c0.2-0.4-0.1-0.8-0.6-0.7l-4,0.8c-0.4,0.1-0.7-0.3-0.6-0.6l2.6-9C29.7,0.3,29.3-0.1,29,0L29,0z"/>
</g>
</svg>
